<mxfile host="app.diagrams.net" modified="2023-06-21T07:04:50.904Z" agent="Mozilla/5.0 (Windows NT 10.0; Win64; x64) AppleWebKit/537.36 (KHTML, like Gecko) Chrome/114.0.0.0 Safari/537.36" etag="HTG4Tj7bPZhzCGQkYN-8" version="21.5.0" type="google">
  <diagram name="Page-1" id="SGE4LDTWQWZZNc-T6pNm">
    <mxGraphModel grid="1" page="1" gridSize="10" guides="1" tooltips="1" connect="1" arrows="1" fold="1" pageScale="1" pageWidth="850" pageHeight="1100" math="0" shadow="0">
      <root>
        <mxCell id="0" />
        <mxCell id="1" parent="0" />
        <mxCell id="HjJ4B62FUwbwW0u96wg0-2" value="" style="edgeStyle=orthogonalEdgeStyle;rounded=0;orthogonalLoop=1;jettySize=auto;html=1;" edge="1" parent="1" source="UlgS0nUrPZ3_IYU448Ue-1" target="HjJ4B62FUwbwW0u96wg0-1">
          <mxGeometry relative="1" as="geometry" />
        </mxCell>
        <mxCell id="UlgS0nUrPZ3_IYU448Ue-1" value="Xử lý giao dịch" style="strokeWidth=2;html=1;shape=mxgraph.flowchart.start_1;whiteSpace=wrap;" vertex="1" parent="1">
          <mxGeometry x="237.5" y="30" width="110" height="50" as="geometry" />
        </mxCell>
        <mxCell id="HjJ4B62FUwbwW0u96wg0-6" style="edgeStyle=orthogonalEdgeStyle;rounded=0;orthogonalLoop=1;jettySize=auto;html=1;entryX=0.5;entryY=0;entryDx=0;entryDy=0;entryPerimeter=0;" edge="1" parent="1" source="HjJ4B62FUwbwW0u96wg0-1" target="HjJ4B62FUwbwW0u96wg0-5">
          <mxGeometry relative="1" as="geometry" />
        </mxCell>
        <mxCell id="HjJ4B62FUwbwW0u96wg0-1" value="&lt;b&gt;Nhập:&lt;/b&gt;&lt;br&gt;Thông tin &lt;br&gt;giao dịch" style="shape=parallelogram;html=1;strokeWidth=2;perimeter=parallelogramPerimeter;whiteSpace=wrap;rounded=1;arcSize=12;size=0.23;" vertex="1" parent="1">
          <mxGeometry x="237.5" y="120" width="110" height="50" as="geometry" />
        </mxCell>
        <mxCell id="HjJ4B62FUwbwW0u96wg0-8" style="edgeStyle=orthogonalEdgeStyle;rounded=0;orthogonalLoop=1;jettySize=auto;html=1;entryX=0.5;entryY=0;entryDx=0;entryDy=0;entryPerimeter=0;" edge="1" parent="1" source="HjJ4B62FUwbwW0u96wg0-5" target="HjJ4B62FUwbwW0u96wg0-11">
          <mxGeometry relative="1" as="geometry">
            <mxPoint x="292.5" y="340" as="targetPoint" />
          </mxGeometry>
        </mxCell>
        <mxCell id="HjJ4B62FUwbwW0u96wg0-14" value="" style="edgeStyle=orthogonalEdgeStyle;rounded=0;orthogonalLoop=1;jettySize=auto;html=1;" edge="1" parent="1" source="HjJ4B62FUwbwW0u96wg0-5">
          <mxGeometry relative="1" as="geometry">
            <mxPoint x="162.5" y="250" as="targetPoint" />
          </mxGeometry>
        </mxCell>
        <mxCell id="HjJ4B62FUwbwW0u96wg0-17" value="" style="edgeStyle=orthogonalEdgeStyle;rounded=0;orthogonalLoop=1;jettySize=auto;html=1;entryX=0;entryY=0.5;entryDx=0;entryDy=0;entryPerimeter=0;" edge="1" parent="1" source="HjJ4B62FUwbwW0u96wg0-5" target="HjJ4B62FUwbwW0u96wg0-25">
          <mxGeometry relative="1" as="geometry">
            <mxPoint x="422.5" y="250" as="targetPoint" />
          </mxGeometry>
        </mxCell>
        <mxCell id="HjJ4B62FUwbwW0u96wg0-5" value="Tìm form&amp;nbsp;&lt;br&gt;&lt;font style=&quot;font-size: 9px;&quot;&gt;(key: sđt)&lt;/font&gt;" style="strokeWidth=2;html=1;shape=mxgraph.flowchart.decision;whiteSpace=wrap;" vertex="1" parent="1">
          <mxGeometry x="242.5" y="200" width="100" height="100" as="geometry" />
        </mxCell>
        <mxCell id="HjJ4B62FUwbwW0u96wg0-9" value="&lt;font style=&quot;font-size: 9px;&quot;&gt;Tìm thấy&lt;/font&gt;" style="text;html=1;strokeColor=none;fillColor=none;align=center;verticalAlign=middle;whiteSpace=wrap;rounded=0;" vertex="1" parent="1">
          <mxGeometry x="241" y="299" width="60" height="30" as="geometry" />
        </mxCell>
        <mxCell id="HjJ4B62FUwbwW0u96wg0-20" style="edgeStyle=orthogonalEdgeStyle;rounded=0;orthogonalLoop=1;jettySize=auto;html=1;entryX=0.5;entryY=0;entryDx=0;entryDy=0;" edge="1" parent="1" source="HjJ4B62FUwbwW0u96wg0-11" target="HjJ4B62FUwbwW0u96wg0-19">
          <mxGeometry relative="1" as="geometry" />
        </mxCell>
        <mxCell id="HjJ4B62FUwbwW0u96wg0-11" value="Tiền &lt;br&gt;cần nhận &lt;br&gt;== &lt;br&gt;Tiền &lt;br&gt;nhận?" style="strokeWidth=2;html=1;shape=mxgraph.flowchart.decision;whiteSpace=wrap;" vertex="1" parent="1">
          <mxGeometry x="242.5" y="340" width="100" height="100" as="geometry" />
        </mxCell>
        <mxCell id="HjJ4B62FUwbwW0u96wg0-15" value="&lt;font style=&quot;font-size: 9px;&quot;&gt;Không tìm thấy&lt;/font&gt;" style="text;html=1;strokeColor=none;fillColor=none;align=center;verticalAlign=middle;whiteSpace=wrap;rounded=0;" vertex="1" parent="1">
          <mxGeometry x="170" y="220" width="72.5" height="31.25" as="geometry" />
        </mxCell>
        <mxCell id="HjJ4B62FUwbwW0u96wg0-18" value="&lt;font style=&quot;font-size: 9px;&quot;&gt;Xảy ra đụng độ key&lt;/font&gt;" style="text;html=1;strokeColor=none;fillColor=none;align=center;verticalAlign=middle;whiteSpace=wrap;rounded=0;" vertex="1" parent="1">
          <mxGeometry x="342.5" y="220" width="83" height="31.25" as="geometry" />
        </mxCell>
        <mxCell id="HjJ4B62FUwbwW0u96wg0-22" style="edgeStyle=orthogonalEdgeStyle;rounded=0;orthogonalLoop=1;jettySize=auto;html=1;entryX=0.5;entryY=0;entryDx=0;entryDy=0;" edge="1" parent="1" source="HjJ4B62FUwbwW0u96wg0-19" target="HjJ4B62FUwbwW0u96wg0-21">
          <mxGeometry relative="1" as="geometry" />
        </mxCell>
        <mxCell id="HjJ4B62FUwbwW0u96wg0-19" value="Xếp ghế cho đơn đăng ký" style="rounded=1;whiteSpace=wrap;html=1;absoluteArcSize=1;arcSize=14;strokeWidth=2;" vertex="1" parent="1">
          <mxGeometry x="252.5" y="480" width="80" height="80" as="geometry" />
        </mxCell>
        <mxCell id="HjJ4B62FUwbwW0u96wg0-21" value="Gửi mail xác nhận" style="rounded=1;whiteSpace=wrap;html=1;absoluteArcSize=1;arcSize=14;strokeWidth=2;" vertex="1" parent="1">
          <mxGeometry x="252.5" y="600" width="80" height="80" as="geometry" />
        </mxCell>
        <mxCell id="HjJ4B62FUwbwW0u96wg0-23" value="&lt;font size=&quot;1&quot;&gt;Đúng&lt;/font&gt;" style="text;html=1;strokeColor=none;fillColor=none;align=center;verticalAlign=middle;whiteSpace=wrap;rounded=0;" vertex="1" parent="1">
          <mxGeometry x="282.5" y="440" width="60" height="30" as="geometry" />
        </mxCell>
        <mxCell id="HjJ4B62FUwbwW0u96wg0-28" style="edgeStyle=orthogonalEdgeStyle;rounded=0;orthogonalLoop=1;jettySize=auto;html=1;" edge="1" parent="1">
          <mxGeometry relative="1" as="geometry">
            <mxPoint x="293" y="320" as="targetPoint" />
            <mxPoint x="472.5" y="298.13" as="sourcePoint" />
            <Array as="points">
              <mxPoint x="472.5" y="320" />
            </Array>
          </mxGeometry>
        </mxCell>
        <mxCell id="HjJ4B62FUwbwW0u96wg0-32" value="" style="edgeStyle=orthogonalEdgeStyle;rounded=0;orthogonalLoop=1;jettySize=auto;html=1;" edge="1" parent="1" source="HjJ4B62FUwbwW0u96wg0-25">
          <mxGeometry relative="1" as="geometry">
            <mxPoint x="610" y="250" as="targetPoint" />
          </mxGeometry>
        </mxCell>
        <mxCell id="HjJ4B62FUwbwW0u96wg0-35" value="" style="edgeStyle=orthogonalEdgeStyle;rounded=0;orthogonalLoop=1;jettySize=auto;html=1;" edge="1" parent="1" source="HjJ4B62FUwbwW0u96wg0-25">
          <mxGeometry relative="1" as="geometry">
            <mxPoint x="472" y="160" as="targetPoint" />
          </mxGeometry>
        </mxCell>
        <mxCell id="HjJ4B62FUwbwW0u96wg0-25" value="Tìm form&lt;br&gt;&lt;font style=&quot;font-size: 9px;&quot;&gt;(key: &lt;br&gt;sđt_std_prm)&lt;/font&gt;" style="strokeWidth=2;html=1;shape=mxgraph.flowchart.decision;whiteSpace=wrap;" vertex="1" parent="1">
          <mxGeometry x="425" y="201.88" width="94.5" height="96.25" as="geometry" />
        </mxCell>
        <mxCell id="HjJ4B62FUwbwW0u96wg0-29" value="&lt;font style=&quot;font-size: 9px;&quot;&gt;Tìm thấy&lt;/font&gt;" style="text;html=1;strokeColor=none;fillColor=none;align=center;verticalAlign=middle;whiteSpace=wrap;rounded=0;" vertex="1" parent="1">
          <mxGeometry x="419" y="294" width="60" height="30" as="geometry" />
        </mxCell>
        <mxCell id="HjJ4B62FUwbwW0u96wg0-33" value="&lt;font style=&quot;font-size: 9px;&quot;&gt;Xảy ra đụng độ key&lt;/font&gt;" style="text;html=1;strokeColor=none;fillColor=none;align=center;verticalAlign=middle;whiteSpace=wrap;rounded=0;" vertex="1" parent="1">
          <mxGeometry x="519" y="221" width="83" height="31.25" as="geometry" />
        </mxCell>
        <mxCell id="HjJ4B62FUwbwW0u96wg0-36" value="&lt;font style=&quot;font-size: 9px;&quot;&gt;Không tìm thấy&lt;/font&gt;" style="text;html=1;strokeColor=none;fillColor=none;align=center;verticalAlign=middle;whiteSpace=wrap;rounded=0;" vertex="1" parent="1">
          <mxGeometry x="402" y="172" width="72.5" height="31.25" as="geometry" />
        </mxCell>
      </root>
    </mxGraphModel>
  </diagram>
</mxfile>
